<svg width="14" height="22" viewBox="0 0 14 22" fill="none" xmlns="http://www.w3.org/2000/svg">
<path d="M12.9741 2.71516L12.9806 2.70835L12.9865 2.70107C13.378 2.21883 13.3316 1.53127 12.8585 1.09891C12.3495 0.633697 11.5328 0.633697 11.0238 1.09891L1.14146 10.1312L1.13468 10.1374L1.12838 10.144L1.02586 10.2526L1.01942 10.2594L1.01351 10.2667C0.622024 10.7489 0.668407 11.4365 1.14146 11.8688L11.0238 20.9011L11.0305 20.9072L11.0376 20.9128L11.1564 21.0065L11.1635 21.0121L11.1709 21.0172C11.6781 21.3611 12.3945 21.3252 12.8585 20.9011L12.8653 20.8949L12.8716 20.8882L12.9741 20.7797L12.9806 20.7729L12.9865 20.7656C13.378 20.2833 13.3316 19.5958 12.8585 19.1634L3.92726 11L12.8585 2.83657L12.8653 2.83038L12.8716 2.8237L12.9741 2.71516Z" fill="#050505" stroke="#050505" stroke-width="0.5"/>
</svg>
